<?xml version="1.0" encoding="UTF-8" standalone="no"?>
<!-- Created with Inkscape (http://www.inkscape.org/) -->

<svg
   xmlns:dc="http://purl.org/dc/elements/1.1/"
   xmlns:cc="http://creativecommons.org/ns#"
   xmlns:rdf="http://www.w3.org/1999/02/22-rdf-syntax-ns#"
   xmlns:svg="http://www.w3.org/2000/svg"
   xmlns="http://www.w3.org/2000/svg"
   xmlns:sodipodi="http://sodipodi.sourceforge.net/DTD/sodipodi-0.dtd"
   xmlns:inkscape="http://www.inkscape.org/namespaces/inkscape"
   width="32.757122mm"
   height="46.834534mm"
   viewBox="0 0 32.757122 46.834534"
   version="1.1"
   id="svg8"
   inkscape:version="0.92.3 (2405546, 2018-03-11)"
   sodipodi:docname="logo.svg">
  <defs
     id="defs2">
    <inkscape:perspective
       sodipodi:type="inkscape:persp3d"
       inkscape:vp_x="0 : 148.5 : 1"
       inkscape:vp_y="0 : 1000 : 0"
       inkscape:vp_z="210.00001 : 148.5 : 1"
       inkscape:persp3d-origin="105.00001 : 99.000001 : 1"
       id="perspective3717" />
  </defs>
  <sodipodi:namedview
     id="base"
     pagecolor="#ffffff"
     bordercolor="#666666"
     borderopacity="1.0"
     inkscape:pageopacity="0.0"
     inkscape:pageshadow="2"
     inkscape:zoom="0.51413793"
     inkscape:cx="87.638765"
     inkscape:cy="-313.26359"
     inkscape:document-units="mm"
     inkscape:current-layer="layer1"
     showgrid="false"
     inkscape:window-width="1440"
     inkscape:window-height="838"
     inkscape:window-x="-8"
     inkscape:window-y="-8"
     inkscape:window-maximized="1" />
  <metadata
     id="metadata5">
    <rdf:RDF>
      <cc:Work
         rdf:about="">
        <dc:format>image/svg+xml</dc:format>
        <dc:type
           rdf:resource="http://purl.org/dc/dcmitype/StillImage" />
        <dc:title />
      </cc:Work>
    </rdf:RDF>
  </metadata>
  <g
     inkscape:label="Layer 1"
     inkscape:groupmode="layer"
     id="layer1"
     transform="translate(-24.03235,-16.493218)">
    <path
       style="fill:#ff7f2a;stroke-width:0.10943855"
       id="path3781"
       d="m 26.318988,21.006197 c 2.757357,-0.51458 5.267386,-2.001438 7.836509,-3.210258 0.286787,-0.04211 0.576345,-0.189724 0.860359,-0.126403 0.980925,0.218709 0.973125,1.918471 0.995862,2.755419 0.03549,1.306634 -0.05671,2.345449 -0.133145,3.663843 -0.481009,5.083792 -1.091691,10.14863 -1.593955,15.229334 -0.425603,4.497624 -0.806828,9.000245 -1.037138,13.51827 -0.07631,2.26891 -0.193702,4.541884 -0.491721,6.786705 -0.111891,0.440617 -0.159971,0.767426 -0.390257,1.147944 -0.635807,1.050579 -3.127737,2.368939 -3.222222,2.427793 -0.157496,0.09809 -0.344492,0.127535 -0.522305,0.128894 -0.18913,0.0013 -0.372164,-0.08044 -0.558246,-0.120652 -0.191641,-0.177317 -0.412224,-0.317657 -0.574922,-0.531959 -0.485908,-0.640021 -0.875306,-1.622334 -1.144581,-2.388461 -0.603534,-1.717163 -0.962259,-3.508864 -1.316829,-5.314174 -0.380898,-2.243546 -0.614895,-4.562012 -0.240537,-6.833309 0.238212,-1.445254 0.456853,-1.895593 0.921274,-3.251113 0.590886,-1.423372 1.347922,-2.730129 2.203608,-3.945056 0.290367,-0.412276 0.603768,-0.800899 0.900408,-1.206815 0.950051,-1.300023 0.87291,-1.214393 1.762744,-2.546773 1.448058,-2.262118 2.501321,-4.820452 3.478517,-7.400937 0.351482,-0.959409 0.642223,-1.948082 0.983368,-2.912425 0.03469,-0.09805 0.352163,-0.980854 0.429646,-1.040987 0.868299,-0.673886 1.803443,-1.217495 2.705162,-1.826242 0.136428,0.164378 0.292577,0.308546 0.409277,0.49313 0.286115,0.452544 0.57816,1.227613 0.743632,1.731223 0.456742,1.390084 0.652361,2.626887 0.86163,4.091871 0.358161,3.167251 0.472739,6.36624 0.501811,9.559184 -0.0058,1.170956 0.0061,0.979121 -0.03624,2.04973 -0.0071,0.179803 0.09418,0.430462 -0.0266,0.539086 -0.772824,0.695006 -1.581411,1.415367 -2.510625,1.742657 -0.228176,0.08037 -0.05434,-0.566317 -0.03032,-0.847688 0.03411,-0.399716 0.135672,-0.7872 0.203506,-1.180795 0.817138,-3.711648 1.648523,-7.418405 2.393875,-11.151801 0.08635,-0.429042 0.169373,-0.859046 0.259038,-1.287124 0.02216,-0.105702 0.400076,-2.008864 0.529411,-2.105918 2.678088,-2.009698 2.205492,-2.715765 2.847551,-1.18934 0.03514,0.23651 0.08416,0.470698 0.105446,0.709534 0.06447,0.723084 0.0736,1.942884 0.08413,2.615394 0.02618,1.670148 0.04939,3.340386 0.07511,5.01055 0.07437,2.116867 -0.01981,4.245146 0.107453,6.35938 -0.817364,0.415396 -1.56742,1.349842 -2.4521,1.246183 -0.4641,-0.05438 0.473772,-0.956062 0.678531,-1.453991 0.353961,-0.860759 0.674563,-1.74049 0.996333,-2.618914 1.166216,-3.18375 2.200082,-6.421918 3.219591,-9.674688 0.764667,-2.448639 1.47343,-4.920347 2.138086,-7.409563 0.283119,-1.060313 0.506922,-2.168521 0.925389,-3.16826 0.892265,-0.523418 1.720058,-1.245275 2.676801,-1.570249 0.171993,-0.05842 0.149115,0.389557 0.189526,0.596641 0.08892,0.455673 0.111335,1.4433 0.121554,1.855678 0.02698,1.088833 0.0173,1.664695 0.01484,2.787067 0.02998,3.653238 -0.104657,7.302031 -0.224269,10.951268 -0.08986,2.832555 -0.131459,5.66654 -0.145275,8.500895 -0.0046,1.888315 0.009,3.776687 0.0397,5.664644 0.0519,0.648969 -0.03688,1.316087 0.02447,1.963838 0.0092,0.09705 -0.01028,0.232654 0.05945,0.284345 0.06522,0.04836 0.14771,-0.05065 0.221566,-0.07598 1.248596,-0.324621 2.43429,-0.896596 3.616608,-1.459109 0,0 -2.104759,1.965336 -2.104759,1.965336 v 0 c -1.251808,0.581191 -2.513028,1.24351 -3.859168,1.428775 -0.130887,-0.07936 -0.292539,-0.11029 -0.392661,-0.238102 -0.114439,-0.146074 -0.07817,-0.617689 -0.07641,-0.773485 0.0059,-0.528299 0.0091,-1.056631 0.01636,-1.584899 0.02845,-1.910157 0.04303,-3.820548 0.06344,-5.730833 0.03305,-2.854438 0.08185,-5.70911 0.222546,-8.559464 0.15138,-3.634073 0.307495,-7.270376 0.189756,-10.910091 -0.03278,-1.241155 -0.03719,-2.495664 -0.166345,-3.730172 -0.02473,-0.236429 -0.05832,-0.471884 -0.102221,-0.704354 -0.01939,-0.102716 -0.157361,-0.234192 -0.08713,-0.298356 0.712502,-0.651015 1.521215,-1.137955 2.281827,-1.706933 -0.110694,0.159581 -0.248551,0.297319 -0.332083,0.478752 -0.265746,0.577192 -0.763233,2.30249 -0.904569,2.768679 -0.763752,2.519192 -1.534589,5.03522 -2.344348,7.534252 -1.029535,3.210654 -2.081987,6.411212 -3.108707,9.62304 -0.266908,0.834949 -0.529564,1.671884 -0.783523,2.51252 -0.142903,0.473033 -0.07888,1.110931 -0.406949,1.428108 -0.787531,0.761402 -1.819992,1.069832 -2.729985,1.604748 0.130474,-2.150968 0.04507,-4.31555 0.08331,-6.469692 -0.0075,-1.663428 -0.01096,-3.326822 -0.09073,-4.988261 -0.03601,-0.749908 -0.09587,-1.720059 -0.203965,-2.484775 -0.02861,-0.202475 -0.07922,-0.399684 -0.118828,-0.599522 -0.475078,-1.118435 -0.194693,-0.318223 2.232162,-1.871549 0.110146,-0.0705 -0.161436,0.231035 -0.215723,0.364982 -0.390343,0.963084 -0.525879,2.061206 -0.808665,3.065525 -0.829555,3.676704 -1.698677,7.34768 -2.324654,11.082721 -0.03828,0.366873 -0.05592,0.737627 -0.114859,1.100616 -0.01886,0.116137 -0.03525,0.258867 -0.116872,0.32653 -0.768696,0.637137 -1.534843,1.30648 -2.393107,1.753875 -0.146144,0.07618 0.07516,-0.369266 0.09724,-0.55709 0.08822,-0.750698 0.09011,-1.303636 0.117896,-2.075337 0.05307,-3.182838 -0.05584,-6.378822 -0.440156,-9.531971 -0.222576,-1.363842 -0.449424,-2.679846 -0.916578,-3.961415 -0.170185,-0.466879 -0.4554,-1.157056 -0.768332,-1.54806 -0.07284,-0.09102 -0.182783,-0.126209 -0.274175,-0.189318 0.716563,-0.538122 1.401399,-1.141143 2.149687,-1.614366 0.124888,-0.07898 -0.17404,0.266202 -0.246366,0.410696 -0.563985,1.126723 -0.862328,2.418185 -1.34678,3.589683 -1.003479,2.597163 -1.98911,5.226057 -3.487111,7.48862 -0.722638,1.087173 -0.986333,1.508384 -1.752042,2.560976 -0.291618,0.400875 -0.602648,0.781509 -0.892138,1.184559 -0.862914,1.201405 -1.651706,2.476774 -2.265533,3.882507 -0.475792,1.327753 -0.693136,1.752067 -0.942443,3.171744 -0.393024,2.238078 -0.200547,4.536371 0.165637,6.756519 0.340187,1.784564 0.687364,3.54188 1.340885,5.211006 0.284409,0.726398 0.68304,1.601942 1.195831,2.16732 0.149333,0.164647 0.349053,0.249687 0.523581,0.374526 0.166252,0.0062 0.334182,0.04738 0.498758,0.01871 0.1665,-0.02898 0.617691,-0.30255 0.479109,-0.189103 -0.617932,0.505851 -1.286674,0.9179 -1.930011,1.376841 0.130949,-0.117654 0.280246,-0.210997 0.39285,-0.352964 0.257671,-0.32485 0.320589,-0.648949 0.450355,-1.054823 0.419639,-2.253959 0.564228,-4.569543 0.700272,-6.86737 0.307437,-4.548136 0.755532,-9.079909 1.174528,-13.614959 0.498736,-5.047444 1.116951,-10.079989 1.485557,-15.144197 0.04549,-1.423646 0.103669,-2.165808 0.02886,-3.546112 -0.03216,-0.593295 -0.02065,-2.173387 -0.812229,-2.282841 -0.254761,-0.03522 -0.507544,0.08835 -0.761317,0.132518 -1.30344,0.59279 -2.58059,1.269106 -3.890812,1.840121 -1.199971,0.522967 -1.846498,0.744516 -3.060355,1.131674 -0.356812,0.113809 -0.716621,0.213897 -1.074931,0.320843 0,0 2.286631,-2.038408 2.286631,-2.038408 z"
       inkscape:connector-curvature="0" />
  </g>
</svg>
